<svg xmlns="http://www.w3.org/2000/svg" xml:space="preserve" width="2048" height="2048" style="shape-rendering:geometricPrecision;text-rendering:geometricPrecision;image-rendering:optimizeQuality;fill-rule:evenodd;clip-rule:evenodd"><defs><clipPath id="id0"><path d="M1024-.001c565.541 0 1024 458.46 1024 1024s-458.461 1024-1024 1024c-565.541 0-1024-458.461-1024-1024 0-565.541 458.461-1024 1024-1024z"/></clipPath><style>.fil6{fill:#2196f3}.fil4{fill:#37474f}.fil1{fill:#e53935}.fil7{fill:#ff9800}.fil5{fill:#fffde7}</style></defs><g id="Layer_x0020_1"><path d="M1024-.001c565.541 0 1024 458.46 1024 1024s-458.461 1024-1024 1024c-565.541 0-1024-458.461-1024-1024 0-565.541 458.461-1024 1024-1024z" style="fill:#ef5350"/><g style="clip-path:url(#id0)"><g id="_464383296"><path id="_4667967761" class="fil1" d="M1516 747.787 2651.88 1883.67l3.27 3.87 3.17 3.94 3.09 4.02 2.98 4.1 2.89 4.17 2.8 4.24 2.69 4.31 2.59 4.38 2.49 4.45 2.38 4.52 2.27 4.57 2.17 4.64 2.06 4.7 1.94 4.76 1.83 4.82 1.72 4.87 1.6 4.93 1.48 4.97 1.36 5.03 1.24 5.08 1.11 5.12.99 5.17.87 5.22.73 5.25.61 5.3.47 5.33.34 5.38.21 5.4.07 5.45L1567.41 885.774l-.06-5.442-.21-5.407-.34-5.373-.47-5.335-.61-5.297-.73-5.256-.87-5.214-.99-5.169-1.12-5.124-1.23-5.078-1.36-5.028-1.48-4.977-1.6-4.925-1.72-4.872-1.83-4.817-1.95-4.758-2.05-4.7-2.17-4.64-2.27-4.578-2.38-4.513-2.49-4.45-2.59-4.38-2.69-4.314-2.8-4.242-2.89-4.171-2.99-4.096-3.08-4.021-3.18-3.944z"/><path id="_466796800" class="fil1" d="M1567.41 885.774 2703.3 2021.66h-.06L1567.36 885.774z"/><path id="_466797400" class="fil1" d="M1567.36 885.774 2703.24 2021.66l16.5 397.81-1135.88-1135.89z"/><path id="_466797472" class="fil1" d="m1583.86 1283.58 1135.88 1135.89.06 1.48.04 1.48.02 1.49.02 1.48v1.49l-.01 1.48-.03 1.49-.04 1.48-.05 1.48-.07 1.48-.08 1.47-.11 1.48-.11 1.47-.14 1.46-.15 1.46-.17 1.46-.18 1.45-.21 1.45-.22 1.44-.25 1.44-.26 1.43-.28 1.42-.31 1.41-.32 1.41-.34 1.39-.37 1.39-.39 1.39-.41 1.37-.43 1.36-.46 1.35-.48 1.34-.5 1.33-1135.88-1135.88.5-1.33.48-1.34.46-1.35.43-1.37.41-1.37.39-1.38.37-1.39.34-1.39.32-1.41.31-1.42.28-1.42.26-1.43.24-1.43.23-1.44.2-1.45.19-1.45.17-1.46.15-1.46.14-1.47.11-1.47.1-1.47.09-1.47.07-1.48.05-1.48.04-1.49.03-1.48.01-1.48v-1.49l-.02-1.48-.03-1.49-.04-1.48z"/><path id="_466797544" class="fil1" d="m1577.63 1329.59 1135.88 1135.88-1.28 3.09-1.4 3.01-1.53 2.93-1.66 2.83-1.8 2.74-1.94 2.64-2.07 2.53-2.23 2.43-2.37 2.31-2.53 2.19-2.69 2.06-2.85 1.94-3.02 1.81-3.18 1.67-3.37 1.53-3.53 1.37-1135.89-1135.88 3.54-1.38 3.36-1.52 3.19-1.67 3.02-1.81 2.85-1.94 2.69-2.06 2.53-2.2 2.37-2.31 2.23-2.42 2.07-2.53 1.94-2.64 1.79-2.74 1.66-2.83 1.54-2.93 1.4-3.01z"/><path id="_466797616" class="fil1" d="M1259.75 1105.32 2395.63 2241.2l-.81.95-.82.93-.84.92-.84.91-.86.9-.87.88-.88.88-.89.86-.9.86-.92.84-.92.83-.94.81-.94.81-.96.79-.97.78-.97.77-1135.88-1135.89.97-.76.97-.78.96-.8.94-.8.94-.82.92-.83.92-.84.9-.85.89-.86.88-.88.87-.89.86-.89.84-.91.83-.92.83-.93z"/><path id="_466797688" class="fil1" d="M1245.42 1119.03 2381.3 2254.92l-1.53 1.16-1.55 1.13-1.58 1.1-1.6 1.07-1.62 1.03-1.64 1.01-1.66.97-1.69.94-1.7.91-1.72.87-1.75.84-1.76.81-1.78.77-1.8.73-1.82.7-1.83.66-1.85.63-1.87.59-1.88.55-1.9.51-1.92.47-1.93.44-1.94.39-1.96.36-1.97.32-1.98.27-2 .24-2 .19-2.02.15-2.03.11-2.04.06-2.05.02-1135.89-1135.88 2.06-.02 2.04-.07 2.03-.1 2.02-.15 2-.2 2-.23 1.98-.28 1.97-.31 1.96-.36 1.94-.39 1.93-.44 1.92-.47 1.9-.52 1.88-.55 1.87-.59 1.85-.62 1.83-.66 1.82-.7 1.8-.74 1.78-.77 1.76-.8 1.74-.84 1.73-.87 1.7-.91 1.69-.94 1.66-.97 1.64-1.01 1.62-1.04 1.6-1.07 1.58-1.09 1.55-1.14z"/><path id="_466797760" class="fil1" d="m1540.17 1366.67 1135.89 1135.88-2.72.94-2.7.86-2.68.79-2.68.7-2.67.64-2.66.55-2.64.49-2.64.42-2.62.34-2.61.27-2.6.2-2.59.14-2.58.06h-2.56l-2.55-.06-2.54-.14-2.52-.19-2.51-.26-2.5-.33-2.48-.38-2.47-.45-2.46-.5-2.44-.57-2.43-.62-2.42-.68-2.4-.74-2.38-.79-2.37-.85-2.36-.9-2.34-.96-2.33-1-2.31-1.06-1135.88-1135.89 2.31 1.06 2.33 1.01 2.34.96 2.35.9 2.37.85 2.39.79 2.4.74 2.42.68 2.43.62 2.44.57 2.46.5 2.47.45 2.48.38 2.5.32 2.51.26 2.52.2 2.54.13 2.55.07h2.56l2.58-.06 2.59-.14 2.59-.2 2.62-.27 2.62-.35 2.63-.41 2.65-.49 2.66-.56 2.66-.63 2.68-.71 2.69-.78 2.7-.86z"/><path id="_466797832" class="fil1" d="M1459.42 1362.58 2595.3 2498.47l-2.49-1.21-2.47-1.27-2.45-1.33-2.42-1.38-2.4-1.44-2.38-1.49-2.36-1.55-2.33-1.6-2.3-1.64-2.29-1.7-2.26-1.75-2.23-1.79-2.21-1.84-2.18-1.88-2.16-1.93-2.13-1.96-2.11-2.01-2.08-2.05-2.06-2.08-1135.88-1135.89 2.06 2.09 2.08 2.05 2.11 2.01 2.13 1.96 2.16 1.93 2.18 1.88 2.21 1.84 2.23 1.79 2.26 1.75 2.28 1.69 2.31 1.65 2.33 1.6 2.36 1.54 2.38 1.5 2.4 1.43 2.42 1.39 2.45 1.32 2.47 1.27z"/><path id="_466797904" class="fil1" d="m1091.88 1051.3 1135.88 1135.88h-6.84l-1.72-.01h-8.66l-1.74-.01h-33.56l-1.78.01h-1.79L1035.79 1051.28H1076.4l1.74.01h8.62l1.71.01h1.71z"/><path id="_466797976" class="fil1" d="m1187.04 1139.04 1135.89 1135.88-2.47-.03-2.45-.09-2.43-.16-2.42-.21-2.39-.27-2.38-.34-2.36-.39-2.34-.45-2.32-.5-2.3-.56-2.28-.62-2.25-.67-2.23-.72-2.21-.78-2.18-.83-2.16-.88-2.12-.93-2.11-.98-2.07-1.03-2.04-1.08-2.02-1.13-1.98-1.17-1.95-1.22-1.92-1.26-1.89-1.31-1.86-1.36-1.82-1.39-1.78-1.44-1.75-1.48-1.72-1.52-1.67-1.56-1.64-1.6-1135.88-1135.89 1.64 1.6 1.67 1.57 1.72 1.52 1.75 1.48 1.78 1.43 1.82 1.4 1.86 1.35 1.89 1.31 1.92 1.27 1.95 1.22 1.98 1.17 2.02 1.13 2.04 1.07 2.07 1.03 2.1.99 2.13.93 2.16.88 2.18.83 2.2.77 2.24.73 2.25.67 2.27.61 2.3.57 2.32.5 2.34.45 2.37.39 2.37.33 2.4.28 2.42.21 2.43.16 2.45.09z"/><path id="_466798048" class="fil1" d="m1035.79 1051.28 1135.88 1135.89h-9.07l-1.82.01H2153.51l-1.81.01h-5.45l-1.81.01H2139l-1.81.01h-5.42l-1.8.01h-3.6l-1.8.01h-3.58l-1.79.01h-3.58l-1.78.01L977.959 1051.37l1.783-.01h3.573l1.79-.01h1.793l1.794-.01h5.398l1.803-.01h3.612l1.805-.01h5.43l1.82-.01H1014l1.82-.01h7.26l1.82-.01h9.08z"/><path id="_466798120" class="fil1" d="M977.959 1051.37 2113.84 2187.25l-.2 2.17-.25 2.16-.3 2.14-.34 2.13-.39 2.11-.44 2.1-.48 2.08-.53 2.06-.57 2.04-.61 2.03-.66 2-.7 1.99-.75 1.96-.78 1.95-.83 1.92-.87 1.9-.9 1.88-.95 1.85-.99 1.83-1.02 1.81-1.06 1.78-1.1 1.76-1.14 1.73-1.17 1.7-1.21 1.68-1.24 1.65-1.28 1.62-1.31 1.6-1.35 1.56-1.38 1.54-1.41 1.5-1.44 1.48L950.309 1111.07l1.443-1.47 1.41-1.5 1.378-1.54 1.346-1.56 1.312-1.6 1.278-1.62 1.244-1.65 1.208-1.68 1.173-1.7 1.136-1.73 1.1-1.76 1.061-1.78 1.024-1.81.987-1.83.946-1.86.908-1.87.867-1.9.827-1.93.785-1.94.744-1.97.702-1.98.658-2.01.615-2.02.572-2.04.528-2.06.481-2.08.436-2.1.391-2.11.344-2.13.296-2.14.25-2.16z"/><path id="_466798192" class="fil1" d="M950.309 1111.07 2086.19 2246.96l-1.64 1.6-1.68 1.56-1.71 1.52-1.75 1.48-1.79 1.44-1.82 1.39-1.85 1.36-1.89 1.31-1.92 1.26-1.95 1.22-1.99 1.17-2.01 1.13-2.05 1.08-2.07 1.03-2.1.98-2.13.93-2.15.88-2.18.83-2.21.78-2.23.72-2.25.67-2.28.62-2.3.56-2.32.5-2.34.45-2.36.39-2.38.34-2.4.27-2.41.21-2.44.16-2.44.09-2.47.03L882.8 1139.04l2.464-.03 2.448-.09 2.434-.16 2.415-.21 2.398-.28 2.379-.33 2.36-.39 2.341-.45 2.32-.5 2.3-.57 2.276-.61 2.254-.67 2.23-.73 2.205-.77 2.182-.83 2.154-.88 2.129-.93 2.101-.99 2.073-1.03 2.043-1.07 2.015-1.13 1.984-1.17 1.952-1.22 1.921-1.27 1.888-1.31 1.856-1.35 1.82-1.39 1.787-1.44 1.75-1.48 1.714-1.52 1.676-1.57z"/><path id="_466798264" class="fil1" d="M479.83 885.774 1615.71 2021.66h-.05L479.777 885.774z"/><path id="_466798336" class="fil1" d="M799.026 1089.4 1934.91 2225.28l-142.9 211.23L656.128 1300.63z"/><path id="_466798408" class="fil1" d="M656.128 1300.63 1792.01 2436.51l-1.7 2.48-1.72 2.45-1.75 2.43-1.79 2.4-1.81 2.37-1.83 2.35-1.87 2.32-1.89 2.29-1.93 2.26-1.94 2.23-1.98 2.19-2 2.16-2.03 2.13-2.06 2.08-2.08 2.05-2.1 2.01-2.14 1.97-2.16 1.92-2.18 1.88-2.21 1.84-2.23 1.79-2.26 1.75-2.28 1.7-2.31 1.64-2.33 1.6-2.36 1.55-2.37 1.49-2.41 1.44-2.42 1.38-2.45 1.33-2.47 1.27-2.49 1.21L588.578 1362.58l2.492-1.21 2.471-1.27 2.447-1.32 2.425-1.39 2.401-1.43 2.378-1.5 2.355-1.54 2.331-1.6 2.307-1.65 2.283-1.69 2.258-1.75 2.234-1.79 2.209-1.84 2.183-1.88 2.16-1.93 2.133-1.96 2.107-2.01 2.081-2.05 2.055-2.09 2.029-2.12 2.002-2.16 1.976-2.19 1.949-2.23 1.92-2.26 1.895-2.29 1.866-2.32 1.838-2.35 1.81-2.37 1.781-2.41 1.754-2.42 1.725-2.46z"/><path id="_466798480" class="fil1" d="M588.578 1362.58 1724.46 2498.47l-2.31 1.06-2.33 1-2.34.96-2.35.9-2.37.85-2.39.79-2.4.74-2.41.68-2.43.62-2.45.57-2.45.5-2.48.45-2.48.38-2.5.33-2.51.26-2.52.19-2.54.14-2.55.06h-2.56l-2.58-.06-2.58-.14-2.6-.2-2.61-.27-2.63-.34-2.63-.42-2.65-.49-2.65-.55-2.67-.64-2.68-.7-2.69-.79-2.7-.86-2.71-.94L507.826 1366.67l2.711.94 2.7.86 2.689.78 2.68.71 2.668.63 2.656.56 2.646.49 2.635.41 2.623.35 2.612.27 2.598.2 2.588.14 2.575.06h2.562l2.55-.07 2.538-.13 2.524-.2 2.511-.26 2.498-.32 2.484-.38 2.471-.45 2.457-.5 2.443-.57 2.429-.62 2.415-.68 2.401-.74 2.386-.79 2.37-.85 2.356-.9 2.34-.96 2.326-1.01z"/><path id="_466798552" class="fil1" d="M507.826 1366.67 1643.71 2502.55l-3.54-1.37-3.36-1.53-3.19-1.67-3.02-1.81-2.85-1.94-2.69-2.06L489.183 1356.28l2.689 2.07 2.85 1.94 3.016 1.81 3.188 1.67 3.361 1.52z"/><path id="_466798624" class="fil1" d="m882.8 1139.04 1135.88 1135.88-2.46-.03-2.45-.09-2.43-.16-2.42-.21-2.4-.27-2.38-.34-2.36-.39-2.34-.45-2.32-.5-2.3-.56-2.28-.62-2.25-.67-2.23-.72-2.2-.78-2.19-.83-2.15-.88-2.13-.93-2.1-.98-2.07-1.03-2.05-1.08-2.01-1.13-1.98-1.17-1.96-1.22-1.92-1.26-1.89-1.31-1.85-1.36-1.82-1.39-1.79-1.44-1.75-1.48-1.71-1.52-1.68-1.56L816.929 1112.67l1.676 1.57 1.715 1.52 1.75 1.48 1.786 1.44 1.821 1.39 1.855 1.35 1.888 1.31 1.921 1.27 1.953 1.22 1.985 1.17 2.013 1.13 2.045 1.07 2.073 1.03 2.1.99 2.128.93 2.156.88 2.18.83 2.206.77 2.23.73 2.254.67 2.277.61 2.298.57 2.321.5 2.341.45 2.36.39 2.38.33 2.399.28 2.415.21 2.433.16 2.449.09z"/><path id="_464383728" class="fil1" d="M837.644 734.715h371.903c18.154-17.663 39.484-32.09 63.06-42.334 25.84-11.233 54.238-17.46 83.953-17.46 58.223 0 110.937 23.6 149.095 61.758 38.157 38.158 61.759 90.872 61.759 149.095h-.052l16.498 397.81c.623 15.814-.733 31.88-6.233 46.004-6.503 16.702-18.097 30.128-37.454 37.085-28.968 10.411-56.196 7.483-80.752-4.09-26.707-12.585-49.622-35.45-67.55-61.952l-132.125-195.308a95.67 95.67 0 0 1-14.33 13.712c-16.184 12.54-36.438 20.006-58.373 20.006-26.362 0-50.23-10.687-67.508-27.966-15.572-15.571-25.788-36.496-27.654-59.773-18.155-.026-37.055-.03-56.089-.017-19.347.013-38.838.042-57.833.082-1.882 23.251-12.094 44.152-27.651 59.708-17.277 17.28-41.149 27.966-67.509 27.966-26.362 0-50.232-10.686-67.51-27.966a95.786 95.786 0 0 1-16.264-21.679l-142.898 211.236c-17.93 26.503-40.844 49.367-67.55 61.952-24.556 11.573-51.784 14.5-80.752 4.09-19.357-6.957-30.952-20.384-37.453-37.085-5.501-14.125-6.856-30.19-6.233-46.005l15.69-397.81h-.053c0-58.223 23.602-110.936 61.76-149.094 38.157-38.158 90.872-61.759 149.094-61.759 29.716 0 58.113 6.228 83.954 17.46 23.575 10.245 44.906 24.671 63.06 42.335z"/></g></g><path d="M1024-.001c565.541 0 1024 458.46 1024 1024s-458.461 1024-1024 1024c-565.541 0-1024-458.461-1024-1024 0-565.541 458.461-1024 1024-1024z" style="fill:none"/><path d="M1356.56 674.92c58.222 0 110.937 23.6 149.095 61.759 38.157 38.158 61.759 90.871 61.759 149.095h-.052l16.497 397.809c.624 15.815-.732 31.88-6.232 46.005-6.503 16.702-18.097 30.128-37.454 37.084-28.968 10.412-56.196 7.484-80.752-4.089-26.707-12.586-49.622-35.45-67.55-61.952l-132.125-195.308a95.67 95.67 0 0 1-14.33 13.711c-16.184 12.54-36.438 20.007-58.373 20.007-26.362 0-50.23-10.688-67.508-27.966-15.572-15.572-25.788-36.496-27.654-59.774-18.155-.026-37.055-.03-56.089-.016-19.347.013-38.838.041-57.834.081-1.881 23.252-12.093 44.152-27.65 59.709-17.278 17.28-41.149 27.966-67.509 27.966-26.362 0-50.232-10.687-67.51-27.966a95.786 95.786 0 0 1-16.264-21.68l-142.898 211.236c-17.93 26.503-40.844 49.367-67.55 61.953-24.556 11.572-51.784 14.5-80.752 4.089-19.357-6.957-30.952-20.384-37.453-37.084-5.501-14.125-6.856-30.19-6.234-46.006l15.691-397.809h-.053c0-58.223 23.602-110.937 61.759-149.095 38.158-38.158 90.873-61.758 149.095-61.758 29.715 0 58.113 6.228 83.954 17.46 23.575 10.245 44.906 24.67 63.06 42.334h371.902c18.154-17.663 39.484-32.09 63.06-42.334 25.84-11.232 54.238-17.46 83.953-17.46z" style="fill:#263238"/><circle class="fil4" cx="1363.48" cy="882.26" r="163.111"/><circle class="fil4" cx="683.706" cy="891.155" r="163.111"/><path class="fil5" d="M1252.33 904.92c-12.514 0-22.66-10.146-22.66-22.66s10.146-22.66 22.66-22.66h67.977c12.514 0 22.66 10.146 22.66 22.66s-10.146 22.66-22.66 22.66h-67.977zM1386.14 993.406c0 12.514-10.146 22.66-22.66 22.66s-22.659-10.146-22.659-22.66v-67.977c0-12.514 10.145-22.66 22.66-22.66 12.513 0 22.659 10.146 22.659 22.66v67.977zM1406.65 904.92c-12.514 0-22.66-10.146-22.66-22.66s10.146-22.66 22.66-22.66h67.978c12.514 0 22.66 10.146 22.66 22.66s-10.146 22.66-22.66 22.66h-67.978zM1386.14 839.091c0 12.514-10.146 22.66-22.66 22.66s-22.659-10.146-22.659-22.66v-67.977c0-12.515 10.145-22.66 22.66-22.66 12.513 0 22.659 10.145 22.659 22.66v67.977z"/><path class="fil6" d="M1068.91 857.45h114.11v45.32h-114.11zM865.794 857.45h112.481v45.32H865.794z"/><circle class="fil4" cx="883.14" cy="1043.22" r="95.134"/><circle class="fil4" cx="1186.7" cy="1043.22" r="95.134"/><path class="fil7" d="M918.268 1008.1c-9.074-9.074-21.615-14.688-35.467-14.688-13.854 0-26.395 5.614-35.47 14.688-9.075 9.076-14.688 21.617-14.688 35.468 0 13.854 5.613 26.395 14.688 35.47 9.076 9.075 21.617 14.688 35.47 14.688 13.852 0 26.392-5.613 35.467-14.688 9.074-9.075 14.688-21.616 14.688-35.47 0-13.851-5.614-26.392-14.688-35.468zM1222.51 1008.1c-9.076-9.074-21.615-14.688-35.468-14.688-13.852 0-26.392 5.614-35.467 14.688-9.075 9.076-14.69 21.615-14.69 35.468 0 13.854 5.615 26.393 14.69 35.468 9.075 9.074 21.614 14.69 35.466 14.69 13.854 0 26.393-5.614 35.469-14.69 9.074-9.075 14.688-21.614 14.688-35.467 0-13.852-5.614-26.393-14.688-35.469z"/><path class="fil5" d="M683.705 925.429c18.773 0 33.989 15.217 33.989 33.989 0 18.77-15.217 33.988-33.989 33.988-18.771 0-33.989-15.217-33.989-33.988 0-18.772 15.218-33.989 33.989-33.989zM683.705 788.904c18.773 0 33.989 15.216 33.989 33.989 0 18.77-15.217 33.988-33.989 33.988-18.771 0-33.989-15.217-33.989-33.988 0-18.773 15.218-33.989 33.989-33.989zM581.739 890.87c0-18.773 15.217-33.989 33.989-33.989s33.988 15.217 33.988 33.989c0 18.771-15.216 33.989-33.988 33.989s-33.989-15.218-33.989-33.989zM717.694 890.87c0-18.773 15.217-33.989 33.989-33.989s33.988 15.217 33.988 33.989c0 18.771-15.216 33.989-33.988 33.989s-33.989-15.218-33.989-33.989z"/></g></svg>